<?xml version="1.0" standalone="no"?><!DOCTYPE svg PUBLIC "-//W3C//DTD SVG 1.1//EN" "http://www.w3.org/Graphics/SVG/1.1/DTD/svg11.dtd"><svg class="icon" width="16px" height="16.00px" viewBox="0 0 1024 1024" version="1.1" xmlns="http://www.w3.org/2000/svg"><path d="M277.504 447.488c0 19.456 15.36 35.84 34.816 35.84s34.816-15.872 34.816-35.84c0-19.456-15.36-35.84-34.816-35.84-19.456 0.512-34.816 16.384-34.816 35.84M476.16 447.488c0 19.456 15.36 35.84 34.816 35.84s34.816-15.872 34.816-35.84c0-19.456-15.36-35.84-34.816-35.84-19.456 0.512-34.816 16.384-34.816 35.84M674.816 447.488c0 19.456 15.36 35.84 34.816 35.84s34.816-15.872 34.816-35.84c0-19.456-15.36-35.84-34.816-35.84-19.456 0.512-34.816 16.384-34.816 35.84" fill="#272536" /><path d="M737.792 929.792c-4.096 0-8.704-1.536-12.288-4.096l-163.328-123.392H155.648c-55.808 0-100.864-46.08-100.864-102.912V200.192C54.784 143.36 99.84 97.28 155.648 97.28h710.144c55.808 0 100.864 46.08 100.864 102.912v498.688c0 56.832-45.568 102.912-100.864 102.912H757.76v107.52c0 7.68-4.608 14.848-11.264 18.432-2.56 1.024-5.632 2.048-8.704 2.048zM155.648 138.24c-33.28 0-60.416 28.16-60.416 62.464v498.688c0 34.304 27.136 62.464 60.416 62.464h413.184c4.608 0 8.704 1.536 12.288 4.096l136.192 102.912v-86.528c0-5.632 2.048-10.752 6.144-14.336 3.584-3.584 9.216-6.144 14.336-6.144h128.512c33.28 0 60.416-28.16 60.416-62.464V200.192c0-34.304-27.136-62.464-60.416-62.464H155.648z" fill="#262435" /></svg>