<?xml version="1.0" standalone="no"?><!DOCTYPE svg PUBLIC "-//W3C//DTD SVG 1.1//EN" "http://www.w3.org/Graphics/SVG/1.1/DTD/svg11.dtd"><svg class="icon" width="16px" height="16.00px" viewBox="0 0 1024 1024" version="1.1" xmlns="http://www.w3.org/2000/svg"><path d="M748.4 370.2H441.6c-13.7 0-24.8-11.1-24.8-24.8 0-13.7 11.1-24.8 24.8-24.8h306.8c13.7 0 24.8 11.1 24.8 24.8 0 13.7-11.1 24.8-24.8 24.8zM748.4 489.7H441.6c-13.7 0-24.8-11.1-24.8-24.8 0-13.7 11.1-24.8 24.8-24.8h306.8c13.7 0 24.8 11.1 24.8 24.8 0 13.7-11.1 24.8-24.8 24.8zM489.7 945.2c-40.2 0-72.9-32.7-72.9-72.9s32.7-72.9 72.9-72.9 72.9 32.7 72.9 72.9-32.7 72.9-72.9 72.9z m0-96.2c-12.9 0-23.3 10.5-23.3 23.3s10.5 23.3 23.3 23.3 23.3-10.5 23.3-23.3-10.5-23.3-23.3-23.3zM754.2 945.2c-40.2 0-72.9-32.7-72.9-72.9s32.7-72.9 72.9-72.9 72.9 32.7 72.9 72.9-32.7 72.9-72.9 72.9z m0-96.2c-12.8 0-23.3 10.5-23.3 23.3s10.5 23.3 23.3 23.3c12.9 0 23.3-10.5 23.3-23.3S767 849 754.2 849z" fill="#D6473B" opacity=".5" /><path d="M905.8 208.3c-20.4-23.4-51.9-37.4-84.3-37.4H297.7l-14.8-70.2c-1.4-6.7-5.5-12.5-11.3-16-5.8-3.6-12.9-4.6-19.4-2.8l-135.8 36.5c-13.2 3.6-21.1 17.2-17.5 30.4 3.6 13.2 17.2 21.1 30.4 17.5l110.5-29.7 129.7 614.3c2.4 11.5 12.5 19.7 24.3 19.7h461.5c13.7 0 24.8-11.1 24.8-24.8 0-13.7-11.1-24.8-24.8-24.8H413.9l-22.4-106.1h389.3c52.2 0 92.7-38.8 105.8-101.9l40.8-232.4c3.7-26.3-4-52-21.6-72.3z m-27.4 64.5l-40.5 230.8c-3 14.5-16 61.6-57.1 61.6H381l-72.8-344.7h513.2c18 0 36 7.8 46.9 20.4 8.3 9.5 11.7 20.5 10.1 31.9z" fill="#D6473B" /></svg>