<?xml version="1.0" standalone="no"?><!DOCTYPE svg PUBLIC "-//W3C//DTD SVG 1.1//EN" "http://www.w3.org/Graphics/SVG/1.1/DTD/svg11.dtd"><svg class="icon" width="16px" height="16.00px" viewBox="0 0 1024 1024" version="1.1" xmlns="http://www.w3.org/2000/svg"><path d="M60.235294 361.411765l744.809412 425.622588A30.117647 30.117647 0 0 1 790.136471 843.294118H173.658353a60.235294 60.235294 0 0 1-59.783529-52.766118L60.235294 361.411765z" fill="#F5C164" /><path d="M963.764706 361.411765l-53.63953 429.116235A60.235294 60.235294 0 0 1 850.341647 843.294118H233.893647a30.117647 30.117647 0 0 1-14.968471-56.259765L963.764706 361.411765z" fill="#F5C164" /><path d="M512 240.941176l331.053176 509.289412A60.235294 60.235294 0 0 1 792.545882 843.294118H231.454118a60.235294 60.235294 0 0 1-50.507294-93.06353L512 240.941176z" fill="#FFE09E" /><path d="M512 240.941176l331.053176 509.289412A60.235294 60.235294 0 0 1 792.545882 843.294118H512V240.941176z" fill="#F9CF7E" /><path d="M512 210.823529m-60.235294 0a60.235294 60.235294 0 1 0 120.470588 0 60.235294 60.235294 0 1 0-120.470588 0Z" fill="#FFE19F" /><path d="M963.764706 331.294118m-60.235294 0a60.235294 60.235294 0 1 0 120.470588 0 60.235294 60.235294 0 1 0-120.470588 0Z" fill="#FFE19F" /><path d="M60.235294 331.294118m-60.235294 0a60.235294 60.235294 0 1 0 120.470588 0 60.235294 60.235294 0 1 0-120.470588 0Z" fill="#FFE19F" /></svg>