<?xml version="1.0" standalone="no"?><!DOCTYPE svg PUBLIC "-//W3C//DTD SVG 1.1//EN" "http://www.w3.org/Graphics/SVG/1.1/DTD/svg11.dtd"><svg class="icon" width="16px" height="16.00px" viewBox="0 0 1024 1024" version="1.1" xmlns="http://www.w3.org/2000/svg"><path fill="#d81e06" d="M512.5 955.4c-5.2 0-10.3-2.1-14.1-6.3-7-7.8-6.4-19.8 1.4-26.8l189.5-170.6c7.8-7 19.8-6.4 26.8 1.4 7 7.8 6.4 19.8-1.4 26.8L525.2 950.6c-3.6 3.2-8.1 4.8-12.7 4.8z"  /><path fill="#d81e06" d="M512.5 955.4c-4.6 0-9.1-1.7-12.7-4.9L310.4 780c-7.8-7-8.4-19-1.4-26.8 7-7.8 19-8.4 26.8-1.4l157.9 142.1V462.7c0-10.5 8.5-19 19-19s19 8.5 19 19v473.8c0 7.5-4.4 14.3-11.2 17.3-2.7 1.1-5.3 1.6-8 1.6z"  /><path fill="#d81e06" d="M758.9 690.1c-10.5 0-19-8.5-19-19s8.5-19 19-19c98.8 0 170.6-72 170.6-171.2 0-95.5-60.1-162.2-153.2-170-7.2-0.6-13.4-5.2-16.1-12C737 240 666.4 102.7 512.5 102.7S288.1 240 264.9 299.1c-2.6 6.7-8.9 11.4-16.1 12-93.1 7.8-153.2 74.5-153.2 170 0 99.2 71.7 171.2 170.6 171.2 10.5 0 19 8.5 19 19s-8.5 19-19 19c-120.8 0-208.5-87.9-208.5-209.1 0-110.8 70.3-192.4 176.2-206.5C289.4 142.9 392.8 64.8 512.5 64.8S735.7 143 791.1 274.6c105.9 14 176.2 95.7 176.2 206.5 0.1 121.1-87.6 209-208.4 209z"  /></svg>