<?xml version="1.0" standalone="no"?><!DOCTYPE svg PUBLIC "-//W3C//DTD SVG 1.1//EN" "http://www.w3.org/Graphics/SVG/1.1/DTD/svg11.dtd"><svg class="icon" width="16px" height="16.00px" viewBox="0 0 1024 1024" version="1.1" xmlns="http://www.w3.org/2000/svg"><path d="M0 0h1024v1024H0z" fill="#FF733C" /><path d="M234.6752 357.12c0 51.3792 52.8384 98.8672 138.6496 124.544 85.8112 25.7024 191.5392 25.7024 277.3504 0 85.8112-25.6768 138.6496-73.1648 138.6496-124.5184 0-79.4368-124.16-143.8208-277.3248-143.8208-153.1648 0-277.3248 64.384-277.3248 143.8208zM512 541.184c-113.28 0-210.688-34.7136-253.7472-84.48-15.1552 17.5104-23.5776 36.8896-23.5776 57.2928 0 78.336 124.16 141.824 277.3248 141.824 153.1648 0 277.3248-63.488 277.3248-141.824 0-20.4032-8.4224-39.7824-23.552-57.2928-43.0848 49.7664-140.4928 84.48-253.7728 84.48z m0 157.696c-114.7648 0-213.248-35.9936-255.4112-87.3216-14.1056 17.152-21.9136 36.0704-21.9136 55.8848 0 79.104 124.16 143.232 277.3248 143.232 153.1648 0 277.3248-64.128 277.3248-143.232 0-19.8144-7.808-38.7072-21.9136-55.8848-42.1632 51.328-140.6464 87.296-255.4112 87.296z" fill="#FFFFFF" /></svg>