<?xml version="1.0" standalone="no"?><!DOCTYPE svg PUBLIC "-//W3C//DTD SVG 1.1//EN" "http://www.w3.org/Graphics/SVG/1.1/DTD/svg11.dtd"><svg class="icon" width="32px" height="32.00px" viewBox="0 0 1024 1024" version="1.1" xmlns="http://www.w3.org/2000/svg"><path d="M512 512m-512 0a512 512 0 1 0 1024 0 512 512 0 1 0-1024 0Z" fill="#FF7043" /><path d="M569.7536 590.4384h-96.256a9.3184 9.3184 0 0 1-8.6016-5.8368L390.144 399.36a9.3184 9.3184 0 0 1 8.6016-12.8h171.008z" fill="#FFFFFF" /><path d="M531.7632 590.4384h96.256a9.3184 9.3184 0 0 0 8.6016-5.8368L711.3728 399.36a9.3184 9.3184 0 0 0-8.6016-12.8h-171.008z" fill="#FFFFFF" /><path d="M316.030787 391.764835m9.479563-3.872399l6.920082-2.826851q9.479564-3.872399 13.351962 5.607165l96.229113 235.567156q3.872399 9.479564-5.607165 13.351963l-6.920082 2.826851q-9.479564 3.872399-13.351962-5.607165l-96.229112-235.567157q-3.872399-9.479564 5.607164-13.351962Z" fill="#FFFFFF" /><path d="M283.85994 418.146144m-1.201808-10.169231l-0.87732-7.423538q-1.201808-10.169231 8.967423-11.371039l45.558154-5.384101q10.169231-1.201808 11.371039 8.967423l0.87732 7.423539q1.201808 10.169231-8.967422 11.371039l-45.558155 5.3841q-10.169231 1.201808-11.371039-8.967423Z" fill="#FFFFFF" /><path d="M417.792 643.7888m0-10.24l0-7.4752q0-10.24 10.24-10.24l268.6976 0q10.24 0 10.24 10.24l0 7.4752q0 10.24-10.24 10.24l-268.6976 0q-10.24 0-10.24-10.24Z" fill="#FFFFFF" /><path d="M451.072 450.048m0-8.9088l0-0.8192q0-8.9088 8.9088-8.9088l179.6096 0q8.9088 0 8.9088 8.9088l0 0.8192q0 8.9088-8.9088 8.9088l-179.6096 0q-8.9088 0-8.9088-8.9088Z" fill="#FF7043" /><path d="M488.7552 532.3776m0-8.9088l0-0.8192q0-8.9088 8.9088-8.9088l114.5856 0q8.9088 0 8.9088 8.9088l0 0.8192q0 8.9088-8.9088 8.9088l-114.5856 0q-8.9088 0-8.9088-8.9088Z" fill="#FF7043" /><path d="M447.8976 704.8192m-35.7376 0a35.7376 35.7376 0 1 0 71.4752 0 35.7376 35.7376 0 1 0-71.4752 0Z" fill="#FFFFFF" /><path d="M653.6192 704.8192m-35.7376 0a35.7376 35.7376 0 1 0 71.4752 0 35.7376 35.7376 0 1 0-71.4752 0Z" fill="#FFFFFF" /></svg>