<?xml version="1.0" standalone="no"?><!DOCTYPE svg PUBLIC "-//W3C//DTD SVG 1.1//EN" "http://www.w3.org/Graphics/SVG/1.1/DTD/svg11.dtd"><svg class="icon" width="32px" height="32.00px" viewBox="0 0 1024 1024" version="1.1" xmlns="http://www.w3.org/2000/svg"><path fill="#ff5777" d="M512 128c51.9 0 102.2 10.1 149.5 30.2 45.7 19.3 86.8 47 122.1 82.3s63 76.4 82.3 122.1c20 47.3 30.2 97.6 30.2 149.5S886 614.3 865.9 661.6c-19.3 45.7-47 86.8-82.3 122.1s-76.4 63-122.1 82.3c-47.3 20-97.6 30.2-149.5 30.2S409.8 886.1 362.5 866c-45.7-19.3-86.8-47-122.1-82.3s-63-76.4-82.3-122.1c-20-47.3-30.2-97.6-30.2-149.5s10.1-102.2 30.2-149.5c19.3-45.7 47-86.8 82.3-122.1s76.4-63 122.1-82.3C409.8 138.1 460.1 128 512 128m0-64C264.6 64 64 264.6 64 512s200.6 448 448 448 448-200.6 448-448S759.4 64 512 64z"  /><path fill="#ff5777" d="M632.8 403.7c-8.2 0-16.4 3.1-22.6 9.3L480.7 542.5l-67-67c-6.2-6.2-14.4-9.3-22.6-9.3-8.2 0-16.4 3.1-22.6 9.3-12.4 12.4-12.4 32.8 0 45.3l84.4 84.4c1.3 2.1 2.8 4.1 4.6 5.9 4.8 4.8 10.8 7.8 17.1 8.9 2.3 0.5 4.7 0.8 7.1 0.8 8.2 0 16.4-3.1 22.6-9.3 2.2-2.2 4-4.7 5.5-7.3l145.7-145.7c12.4-12.4 12.4-32.8 0-45.3-6.2-6.4-14.4-9.5-22.7-9.5z"  /></svg>