<?xml version="1.0" standalone="no"?><!DOCTYPE svg PUBLIC "-//W3C//DTD SVG 1.1//EN" "http://www.w3.org/Graphics/SVG/1.1/DTD/svg11.dtd"><svg t="1581071645953" class="icon" viewBox="0 0 1024 1024" version="1.1" xmlns="http://www.w3.org/2000/svg" p-id="4293" xmlns:xlink="http://www.w3.org/1999/xlink" width="32" height="32"><defs><style type="text/css"></style></defs><path d="M874.666667 64c0-36.266667-27.733333-64-64-64H213.333333C177.066667 0 149.333333 27.733333 149.333333 64v896c0 36.266667 27.733333 64 64 64h597.333334c36.266667 0 64-27.733333 64-64V64z m-42.666667 891.733333c0 12.8-17.066667 25.6-27.733333 25.6h-597.333334c-12.8 0-14.933333-14.933333-14.933333-25.6V810.666667h640v145.066666z m0-187.733333H192V59.733333c0-12.8 2.133333-17.066667 14.933333-17.066666h597.333334c10.666667 0 27.733333 4.266667 27.733333 17.066666V768z" fill="#ffffff" p-id="4294"></path><path d="M441.6 917.333333h128c12.8 0 21.333333-8.533333 21.333333-21.333333s-8.533333-21.333333-21.333333-21.333333h-128c-12.8 0-21.333333 8.533333-21.333333 21.333333s8.533333 21.333333 21.333333 21.333333z" fill="#ffffff" p-id="4295"></path></svg>