<?xml version="1.0" standalone="no"?><!DOCTYPE svg PUBLIC "-//W3C//DTD SVG 1.1//EN" "http://www.w3.org/Graphics/SVG/1.1/DTD/svg11.dtd"><svg t="1581071831061" class="icon" viewBox="0 0 1024 1024" version="1.1" xmlns="http://www.w3.org/2000/svg" p-id="6442" xmlns:xlink="http://www.w3.org/1999/xlink" width="32" height="32"><defs><style type="text/css"></style></defs><path d="M509.41092347 17.48638025c-272.37085235 0-493.47798914 221.1071368-493.47798916 493.47798914 0 272.37085235 221.1071368 493.47798914 493.47798916 493.47798913 272.37085235 0 493.47798914-221.1071368 493.47798912-493.47798913-0.51781531-272.37085235-221.1071368-493.47798914-493.47798912-493.47798914z m296.70817184 843.00332247c-34.69362569-16.05227457-142.91702518-39.87177876-167.2543447-55.40623803-28.99765728-18.12353581-19.67698173-117.54407506-19.67698172-117.54407506l19.67698172-17.08790518s5.17815309-45.04993185 13.46319803-61.10220642c19.15916642-36.76488691 39.35396347-97.86709333 39.35396346-97.86709334s19.67698173-14.49882864 19.67698173-39.35396345-19.67698173-39.35396347-19.67698173-39.35396346 7.24941431-69.38725136 7.24941432-117.54407506c0-100.97398518-63.69128297-156.89803852-177.61065087-156.89803853-113.9193679 0-197.28763259 47.12119309-197.28763258 156.89803853 0 48.1568237 15.53445925 117.54407506 15.53445925 117.54407506s-19.67698173 14.49882864-19.67698172 39.35396346 19.67698173 39.35396347 19.67698172 39.35396345 22.78387358 70.94069728 39.35396347 97.86709334c9.32067555 15.53445925 13.46319803 61.10220642 13.46319801 61.10220642l19.67698173 17.08790518s9.32067555 99.42053925-19.67698173 117.54407506c-25.89076543 16.05227457-140.84576395 41.42522469-170.36123653 57.47749926-101.4918005-83.36826469-165.70089876-209.7152-165.70089878-351.07877926 0-252.17605531 204.01923161-456.19528691 456.19528692-456.19528691 252.17605531 0 456.19528691 204.01923161 456.19528691 456.19528691 0 140.32794864-63.17346765 265.63925333-162.59400691 349.00751803z" fill="#dbdbdb" p-id="6443"></path><path d="M509.41092347 17.48638025c-272.37085235 0-493.47798914 221.1071368-493.47798916 493.47798914 0 272.37085235 221.1071368 493.47798914 493.47798916 493.47798913 272.37085235 0 493.47798914-221.1071368 493.47798912-493.47798913-0.51781531-272.37085235-221.1071368-493.47798914-493.47798912-493.47798914z m296.70817184 843.00332247c-34.69362569-16.05227457-142.91702518-39.87177876-167.2543447-55.40623803-28.99765728-18.12353581-19.67698173-117.54407506-19.67698172-117.54407506l19.67698172-17.08790518s5.17815309-45.04993185 13.46319803-61.10220642c19.15916642-36.76488691 39.35396347-97.86709333 39.35396346-97.86709334s19.67698173-14.49882864 19.67698173-39.35396345-19.67698173-39.35396347-19.67698173-39.35396346 7.24941431-69.38725136 7.24941432-117.54407506c0-100.97398518-63.69128297-156.89803852-177.61065087-156.89803853-113.9193679 0-197.28763259 47.12119309-197.28763258 156.89803853 0 48.1568237 15.53445925 117.54407506 15.53445925 117.54407506s-19.67698173 14.49882864-19.67698172 39.35396346 19.67698173 39.35396347 19.67698172 39.35396345 22.78387358 70.94069728 39.35396347 97.86709334c9.32067555 15.53445925 13.46319803 61.10220642 13.46319801 61.10220642l19.67698173 17.08790518s9.32067555 99.42053925-19.67698173 117.54407506c-25.89076543 16.05227457-140.84576395 41.42522469-170.36123653 57.47749926-101.4918005-83.36826469-165.70089876-209.7152-165.70089878-351.07877926 0-252.17605531 204.01923161-456.19528691 456.19528692-456.19528691 252.17605531 0 456.19528691 204.01923161 456.19528691 456.19528691 0 140.32794864-63.17346765 265.63925333-162.59400691 349.00751803z" fill="#dbdbdb" p-id="6444"></path></svg>